<svg xmlns="http://www.w3.org/2000/svg" xmlns:xlink="http://www.w3.org/1999/xlink" viewBox="0,0,256,256" width="64px" height="64px" fill-rule="nonzero"><defs><linearGradient x1="15" y1="11.638" x2="15" y2="16.021" gradientUnits="userSpaceOnUse" id="color-1"><stop offset="0" stop-color="#95facc"></stop><stop offset="1" stop-color="#6ec8ff"></stop></linearGradient><linearGradient x1="32" y1="6.319" x2="32" y2="59.699" gradientUnits="userSpaceOnUse" id="color-2"><stop offset="0" stop-color="#2af598"></stop><stop offset="1" stop-color="#009efd"></stop></linearGradient><linearGradient x1="32" y1="19" x2="32" y2="39" gradientUnits="userSpaceOnUse" id="color-3"><stop offset="0" stop-color="#95facc"></stop><stop offset="1" stop-color="#6ec8ff"></stop></linearGradient></defs><g fill="none" fill-rule="nonzero" stroke="none" stroke-width="1" stroke-linecap="butt" stroke-linejoin="miter" stroke-miterlimit="10" stroke-dasharray="" stroke-dashoffset="0" font-family="none" font-weight="none" font-size="none" text-anchor="none" style="mix-blend-mode: normal"><g transform="scale(4,4)"><path d="M12,18v-4.667c0,-0.736 0.597,-1.333 1.333,-1.333h4.667z" fill="url(#color-1)"></path><path d="M51,8h-38c-2.757,0 -5,2.243 -5,5v38c0,2.757 2.243,5 5,5h38c2.757,0 5,-2.243 5,-5v-38c0,-2.757 -2.243,-5 -5,-5zM51,54h-2v-2h-2v2h-2v-2h-2v2h-2v-2h-2v2h-2v-2h-2v2h-2v-2h-2v2h-2v-2h-2v2h-2v-2h-2v2h-2v-2h-2v2h-2v-2h-2v2h-2c-1.654,0 -3,-1.346 -3,-3v-2.026c0.838,0.635 1.87,1.026 3,1.026h38c1.13,0 2.162,-0.391 3,-1.026v2.026c0,1.654 -1.346,3 -3,3zM54,45c0,1.654 -1.346,3 -3,3h-38c-1.654,0 -3,-1.346 -3,-3v-32c0,-1.654 1.346,-3 3,-3h38c1.654,0 3,1.346 3,3z" fill="url(#color-2)"></path><path d="M41,27h-7v-7c0,-0.552 -0.448,-1 -1,-1h-2c-0.552,0 -1,0.448 -1,1v7h-7c-0.552,0 -1,0.448 -1,1v2c0,0.552 0.448,1 1,1h7v7c0,0.552 0.448,1 1,1h2c0.552,0 1,-0.448 1,-1v-7h7c0.552,0 1,-0.448 1,-1v-2c0,-0.552 -0.448,-1 -1,-1z" fill="url(#color-3)"></path></g></g></svg>