<svg xmlns="http://www.w3.org/2000/svg" xmlns:xlink="http://www.w3.org/1999/xlink" viewBox="0,0,256,256" width="64px" height="64px" fill-rule="nonzero"><defs><linearGradient x1="32.02" y1="8.987" x2="32.02" y2="55.782" gradientUnits="userSpaceOnUse" id="color-1"><stop offset="0" stop-color="#ff8177"></stop><stop offset="1" stop-color="#b12a5b"></stop></linearGradient><linearGradient x1="32.02" y1="7.69" x2="32.02" y2="55.119" gradientUnits="userSpaceOnUse" id="color-2"><stop offset="0" stop-color="#ffe9e7"></stop><stop offset="1" stop-color="#dd6e96"></stop></linearGradient></defs><g fill="none" fill-rule="nonzero" stroke="none" stroke-width="1" stroke-linecap="butt" stroke-linejoin="miter" stroke-miterlimit="10" stroke-dasharray="" stroke-dashoffset="0" font-family="none" font-weight="none" font-size="none" text-anchor="none" style="mix-blend-mode: normal"><g transform="scale(4,4)"><path d="M54.064,49.821l-4.243,4.243c-1.168,1.168 -3.074,1.168 -4.243,0l-13.578,-13.579l-13.566,13.566c-1.168,1.168 -3.074,1.168 -4.243,0l-4.243,-4.243c-1.168,-1.168 -1.168,-3.074 0,-4.243l13.567,-13.565l-13.553,-13.553c-1.168,-1.168 -1.168,-3.074 0,-4.243l4.243,-4.243c1.168,-1.168 3.074,-1.168 4.243,0l13.552,13.554l13.605,-13.605c1.168,-1.168 3.074,-1.168 4.243,0l4.243,4.243c1.168,1.168 1.168,3.074 0,4.243l-13.606,13.604l13.579,13.579c1.168,1.168 1.168,3.074 0,4.242zM11.363,46.98c-0.389,0.389 -0.389,1.025 0,1.414l4.243,4.243c0.389,0.389 1.025,0.389 1.414,0l14.98,-14.98l14.993,14.993c0.389,0.389 1.025,0.389 1.414,0l4.243,-4.243c0.389,-0.389 0.389,-1.025 0,-1.414l-14.993,-14.993l15.019,-15.019c0.389,-0.389 0.389,-1.025 0,-1.414l-4.243,-4.243c-0.389,-0.389 -1.025,-0.389 -1.414,0l-15.019,15.019l-14.967,-14.967c-0.389,-0.389 -1.025,-0.389 -1.414,0l-4.243,4.243c-0.389,0.389 -0.389,1.025 0,1.414l14.967,14.967z" fill="url(#color-1)"></path><path d="M47.019,14.153l-15.019,15.019l-14.967,-14.967c-0.389,-0.389 -1.025,-0.389 -1.414,0l-1.414,1.414c-0.389,0.389 -0.389,1.025 0,1.414l14.967,14.967l-14.98,14.98c-0.389,0.389 -0.389,1.025 0,1.414l1.414,1.414c0.389,0.389 1.025,0.389 1.414,0l14.98,-14.98l14.993,14.993c0.389,0.389 1.025,0.389 1.414,0l1.414,-1.414c0.389,-0.389 0.389,-1.025 0,-1.414l-14.993,-14.993l15.019,-15.019c0.389,-0.389 0.389,-1.025 0,-1.414l-1.414,-1.414c-0.389,-0.39 -1.025,-0.39 -1.414,0z" fill="url(#color-2)"></path></g></g></svg>