<svg xmlns="http://www.w3.org/2000/svg" xmlns:xlink="http://www.w3.org/1999/xlink" viewBox="0,0,256,256" width="64px" height="64px" fill-rule="nonzero"><defs><linearGradient x1="32" y1="20" x2="32" y2="44" gradientUnits="userSpaceOnUse" id="color-1"><stop offset="0" stop-color="#95facc"></stop><stop offset="1" stop-color="#6ec8ff"></stop></linearGradient><linearGradient x1="32" y1="12" x2="32" y2="52" gradientUnits="userSpaceOnUse" id="color-2"><stop offset="0" stop-color="#2af598"></stop><stop offset="1" stop-color="#009efd"></stop></linearGradient></defs><g fill="none" fill-rule="nonzero" stroke="none" stroke-width="1" stroke-linecap="butt" stroke-linejoin="miter" stroke-miterlimit="10" stroke-dasharray="" stroke-dashoffset="0" font-family="none" font-weight="none" font-size="none" text-anchor="none" style="mix-blend-mode: normal"><g transform="scale(4,4)"><path d="M30,28c0,4.418 -3.582,8 -8,8c-4.418,0 -8,-3.582 -8,-8c0,-4.418 3.582,-8 8,-8c4.418,0 8,3.582 8,8zM49,27h-13v2h13zM50,42h-18v2h18zM49,33h-13v2h13z" fill="url(#color-1)"></path><path d="M54,52h-44c-2.206,0 -4,-1.794 -4,-4v-32c0,-2.206 1.794,-4 4,-4h44c2.206,0 4,1.794 4,4v32c0,2.206 -1.794,4 -4,4zM10,14c-1.103,0 -2,0.897 -2,2v32c0,1.103 0.897,2 2,2h44c1.103,0 2,-0.897 2,-2v-32c0,-1.103 -0.897,-2 -2,-2zM49,23h-13v-2h13zM22,20.069v6.931c0,0.552 0.448,1 1,1h6.931c0.6,0 1.074,-0.528 1,-1.123c-0.507,-4.073 -3.735,-7.3 -7.807,-7.807c-0.596,-0.075 -1.124,0.399 -1.124,0.999zM31,40v2h-17v2h17v2h2v-6z" fill="url(#color-2)"></path></g></g></svg>