<svg xmlns="http://www.w3.org/2000/svg" xmlns:xlink="http://www.w3.org/1999/xlink" viewBox="0,0,256,256" width="64px" height="64px" fill-rule="nonzero"><defs><linearGradient x1="32" y1="23.085" x2="32" y2="49.308" gradientUnits="userSpaceOnUse" id="color-1"><stop offset="0" stop-color="#95facc"></stop><stop offset="1" stop-color="#6ec8ff"></stop></linearGradient><linearGradient x1="23" y1="23.085" x2="23" y2="49.308" gradientUnits="userSpaceOnUse" id="color-2"><stop offset="0" stop-color="#95facc"></stop><stop offset="1" stop-color="#6ec8ff"></stop></linearGradient><linearGradient x1="41" y1="23.085" x2="41" y2="49.308" gradientUnits="userSpaceOnUse" id="color-3"><stop offset="0" stop-color="#95facc"></stop><stop offset="1" stop-color="#6ec8ff"></stop></linearGradient><linearGradient x1="32" y1="6.362" x2="32" y2="57.569" gradientUnits="userSpaceOnUse" id="color-4"><stop offset="0" stop-color="#2af598"></stop><stop offset="1" stop-color="#009efd"></stop></linearGradient></defs><g fill="none" fill-rule="nonzero" stroke="none" stroke-width="1" stroke-linecap="butt" stroke-linejoin="miter" stroke-miterlimit="10" stroke-dasharray="" stroke-dashoffset="0" font-family="none" font-weight="none" font-size="none" text-anchor="none" style="mix-blend-mode: normal"><g transform="scale(4,4)"><path d="M33,51h-2c-0.552,0 -1,-0.448 -1,-1v-26c0,-0.552 0.448,-1 1,-1h2c0.552,0 1,0.448 1,1v26c0,0.552 -0.448,1 -1,1z" fill="url(#color-1)"></path><path d="M24,51h-2c-0.552,0 -1,-0.448 -1,-1v-26c0,-0.552 0.448,-1 1,-1h2c0.552,0 1,0.448 1,1v26c0,0.552 -0.448,1 -1,1z" fill="url(#color-2)"></path><path d="M42,51h-2c-0.552,0 -1,-0.448 -1,-1v-26c0,-0.552 0.448,-1 1,-1h2c0.552,0 1,0.448 1,1v26c0,0.552 -0.448,1 -1,1z" fill="url(#color-3)"></path><path d="M50,11h-10.033l-1.552,-3.282c-0.494,-1.044 -1.56,-1.718 -2.713,-1.718h-7.404c-1.153,0 -2.219,0.674 -2.713,1.718l-1.552,3.282h-10.033c-2.757,0 -5,2.243 -5,5v3c0,0.553 0.447,1 1,1h1c1.103,0 2,0.897 2,2v31c0,2.757 2.243,5 5,5h28c2.757,0 5,-2.243 5,-5v-31c0,-1.103 0.897,-2 2,-2h1c0.553,0 1,-0.447 1,-1v-3c0,-2.757 -2.243,-5 -5,-5zM27.394,8.573c0.164,-0.348 0.519,-0.573 0.904,-0.573h7.404c0.385,0 0.74,0.225 0.904,0.573l1.148,2.427h-11.508zM49,22v31c0,1.654 -1.346,3 -3,3h-5.027c-0.134,-1.125 -1.08,-2 -2.241,-2h-13.464c-1.161,0 -2.107,0.875 -2.241,2h-5.027c-1.654,0 -3,-1.346 -3,-3v-31c0,-0.732 -0.212,-1.409 -0.556,-2h35.112c-0.344,0.591 -0.556,1.268 -0.556,2zM11,18v-2c0,-1.654 1.346,-3 3,-3h12v2h2v-2h3v3h2v-3h3v2h2v-2h1.333h10.667c1.654,0 3,1.346 3,3v2z" fill="url(#color-4)"></path></g></g></svg>