<svg xmlns="http://www.w3.org/2000/svg" xmlns:xlink="http://www.w3.org/1999/xlink" viewBox="0,0,256,256" width="64px" height="64px" fill-rule="nonzero"><defs><linearGradient x1="32.416" y1="17.117" x2="32.416" y2="21.019" gradientUnits="userSpaceOnUse" id="color-1"><stop offset="0" stop-color="#95facc"></stop><stop offset="1" stop-color="#6ec8ff"></stop></linearGradient><linearGradient x1="32" y1="8.787" x2="32" y2="50.319" gradientUnits="userSpaceOnUse" id="color-2"><stop offset="0" stop-color="#2af598"></stop><stop offset="1" stop-color="#009efd"></stop></linearGradient></defs><g fill="none" fill-rule="nonzero" stroke="none" stroke-width="1" stroke-linecap="butt" stroke-linejoin="miter" stroke-miterlimit="10" stroke-dasharray="" stroke-dashoffset="0" font-family="none" font-weight="none" font-size="none" text-anchor="none" style="mix-blend-mode: normal"><g transform="scale(4,4)"><path d="M45.394,21.289h-26.957l-3,-3.787h33.957z" fill="url(#color-1)"></path><path d="M49.818,8.003h-35.636c-1.755,0 -3.182,1.428 -3.182,3.182v3.551c0,1.754 1.427,3.182 3.182,3.182h0.099l10.098,12.676c0.421,0.529 0.653,1.192 0.653,1.868v14.545c0,0.938 0.447,1.833 1.195,2.396l7.952,5.987c0.533,0.401 1.165,0.606 1.802,0.606c0.456,0 0.915,-0.104 1.342,-0.317c1.024,-0.512 1.661,-1.54 1.661,-2.686v-20.589c0,-0.678 0.233,-1.342 0.656,-1.872l10.079,-12.615h0.1c1.754,0 3.182,-1.428 3.182,-3.182v-3.551c-0.001,-1.753 -1.428,-3.181 -3.183,-3.181zM38.077,29.284c-0.706,0.883 -1.094,1.991 -1.094,3.12v0.596h-5.983v2h5.983v2h-3.983v2h3.983v2h-1.983v2h1.983v9.993c0,0.388 -0.207,0.723 -0.554,0.896c-0.346,0.173 -0.737,0.137 -1.048,-0.097l-7.952,-5.987c-0.25,-0.188 -0.398,-0.486 -0.398,-0.799v-14.545c0,-1.126 -0.386,-2.232 -1.088,-3.114l-5.104,-6.407h22.307zM44.744,20.939h-25.498l-2.408,-3.022h30.321zM51,14.735c0,0.651 -0.53,1.182 -1.182,1.182h-35.636c-0.651,0 -1.182,-0.53 -1.182,-1.182v-3.551c0,-0.651 0.53,-1.182 1.182,-1.182h35.637c0.651,0 1.182,0.53 1.182,1.182v3.551z" fill="url(#color-2)"></path></g></g></svg>