<svg xmlns="http://www.w3.org/2000/svg" xmlns:xlink="http://www.w3.org/1999/xlink" viewBox="0,0,256,256" width="64px" height="64px" fill-rule="nonzero"><defs><linearGradient x1="25" y1="5.25" x2="25" y2="58.182" gradientUnits="userSpaceOnUse" id="color-1"><stop offset="0" stop-color="#2af598"></stop><stop offset="1" stop-color="#009efd"></stop></linearGradient><linearGradient x1="25" y1="5.25" x2="25" y2="58.182" gradientUnits="userSpaceOnUse" id="color-2"><stop offset="0" stop-color="#2af598"></stop><stop offset="1" stop-color="#009efd"></stop></linearGradient><linearGradient x1="17" y1="5.25" x2="17" y2="58.182" gradientUnits="userSpaceOnUse" id="color-3"><stop offset="0" stop-color="#2af598"></stop><stop offset="1" stop-color="#009efd"></stop></linearGradient><linearGradient x1="43" y1="24" x2="43" y2="40" gradientUnits="userSpaceOnUse" id="color-4"><stop offset="0" stop-color="#95facc"></stop><stop offset="1" stop-color="#6ec8ff"></stop></linearGradient></defs><g fill="none" fill-rule="nonzero" stroke="none" stroke-width="1" stroke-linecap="butt" stroke-linejoin="miter" stroke-miterlimit="10" stroke-dasharray="" stroke-dashoffset="0" font-family="none" font-weight="none" font-size="none" text-anchor="none" style="mix-blend-mode: normal"><g transform="scale(4,4)"><path d="M39,58h-28c-2.757,0 -5,-2.243 -5,-5v-42c0,-2.757 2.243,-5 5,-5h28c2.757,0 5,2.243 5,5v17h-2v-17c0,-1.654 -1.346,-3 -3,-3h-28c-1.654,0 -3,1.346 -3,3v42c0,1.654 1.346,3 3,3h28c1.654,0 3,-1.346 3,-3v-17h2v17c0,2.757 -2.243,5 -5,5z" fill="url(#color-1)"></path><path d="M38,54h-26c-1.103,0 -2,-0.897 -2,-2v-40c0,-1.103 0.897,-2 2,-2h26c1.103,0 2,0.897 2,2v16h-2v-16h-26v40h26v-16h2v16c0,1.103 -0.897,2 -2,2z" fill="url(#color-2)"></path><path d="M18,35.184v-4.368c1.162,-0.415 2,-1.514 2,-2.816c0,-1.654 -1.346,-3 -3,-3c-1.654,0 -3,1.346 -3,3c0,1.302 0.838,2.401 2,2.815v4.369c-1.162,0.415 -2,1.514 -2,2.816c0,1.654 1.346,3 3,3c1.654,0 3,-1.346 3,-3c0,-1.302 -0.838,-2.401 -2,-2.816zM17,27c0.552,0 1,0.448 1,1c0,0.552 -0.448,1 -1,1c-0.552,0 -1,-0.448 -1,-1c0,-0.552 0.448,-1 1,-1zM17,39c-0.552,0 -1,-0.448 -1,-1c0,-0.552 0.448,-1 1,-1c0.552,0 1,0.448 1,1c0,0.552 -0.448,1 -1,1z" fill="url(#color-3)"></path><path d="M57.52,31.179l-9.845,-6.011c-0.716,-0.438 -1.675,0.032 -1.675,0.82v4.012h-17c-0.552,0 -1,0.448 -1,1v2c0,0.552 0.448,1 1,1h17v4.011c0,0.788 0.959,1.258 1.675,0.821l9.845,-6.012c0.64,-0.39 0.64,-1.25 0,-1.641z" fill="url(#color-4)"></path></g></g></svg>