<svg xmlns="http://www.w3.org/2000/svg" xmlns:xlink="http://www.w3.org/1999/xlink" viewBox="0,0,256,256" width="64px" height="64px" fill-rule="nonzero"><defs><linearGradient x1="32" y1="28.625" x2="32" y2="39.501" gradientUnits="userSpaceOnUse" id="color-1"><stop offset="0" stop-color="#95facc"></stop><stop offset="1" stop-color="#6ec8ff"></stop></linearGradient><linearGradient x1="32" y1="5.5" x2="32" y2="58.366" gradientUnits="userSpaceOnUse" id="color-2"><stop offset="0" stop-color="#2af598"></stop><stop offset="1" stop-color="#009efd"></stop></linearGradient><linearGradient x1="32" y1="5.5" x2="32" y2="58.366" gradientUnits="userSpaceOnUse" id="color-3"><stop offset="0" stop-color="#2af598"></stop><stop offset="1" stop-color="#009efd"></stop></linearGradient><linearGradient x1="32" y1="5.5" x2="32" y2="58.366" gradientUnits="userSpaceOnUse" id="color-4"><stop offset="0" stop-color="#2af598"></stop><stop offset="1" stop-color="#009efd"></stop></linearGradient></defs><g fill="none" fill-rule="nonzero" stroke="none" stroke-width="1" stroke-linecap="butt" stroke-linejoin="miter" stroke-miterlimit="10" stroke-dasharray="" stroke-dashoffset="0" font-family="none" font-weight="none" font-size="none" text-anchor="none" style="mix-blend-mode: normal"><g transform="scale(4,4)"><path d="M32,29c-2.76142,0 -5,2.23858 -5,5c0,2.76142 2.23858,5 5,5c2.76142,0 5,-2.23858 5,-5c0,-2.76142 -2.23858,-5 -5,-5z" fill="url(#color-1)"></path><path d="M54.535,15.121l-7.656,-7.656c-0.931,-0.931 -2.22,-1.465 -3.536,-1.465h-30.343c-2.757,0 -5,2.243 -5,5v37v1v4c0,2.757 2.243,5 5,5h38c2.757,0 5,-2.243 5,-5v-4v-4v-26.343c0,-1.316 -0.534,-2.605 -1.465,-3.536zM44,8.08v4.92c0,0.552 -0.448,1 -1,1h-1.184c0.112,-0.314 0.184,-0.648 0.184,-1v-5h1.343c0.222,0 0.442,0.031 0.657,0.08zM20,8h2v5c0,0.352 0.072,0.686 0.184,1h-1.184c-0.552,0 -1,-0.448 -1,-1zM24,13v-5h16v5c0,0.552 -0.448,1 -1,1h-14c-0.552,0 -1,-0.448 -1,-1zM51,56h-38c-1.654,0 -3,-1.346 -3,-3v-0.026c0.838,0.635 1.87,1.026 3,1.026h38c1.13,0 2.162,-0.391 3,-1.026v0.026c0,1.654 -1.346,3 -3,3zM54,49c0,1.654 -1.346,3 -3,3h-38c-1.654,0 -3,-1.346 -3,-3v-1v-37c0,-1.654 1.346,-3 3,-3h5v5c0,1.654 1.346,3 3,3h22c1.654,0 3,-1.346 3,-3v-3.586l7.121,7.121c0.559,0.559 0.879,1.332 0.879,2.122v26.343z" fill="url(#color-2)"></path><path d="M43,24h-22c-1.654,0 -3,1.346 -3,3v18c0,1.654 1.346,3 3,3h22c1.654,0 3,-1.346 3,-3v-18c0,-1.654 -1.346,-3 -3,-3zM21,26h22c0.552,0 1,0.448 1,1v15h-24v-15c0,-0.552 0.448,-1 1,-1zM43,46h-22c-0.552,0 -1,-0.448 -1,-1v-1h24v1c0,0.552 -0.448,1 -1,1z" fill="url(#color-3)"></path><path d="M19,19h26v2h-26z" fill="url(#color-4)"></path></g></g></svg>